<?xml version="1.0" standalone="no"?><!DOCTYPE svg PUBLIC "-//W3C//DTD SVG 1.1//EN"
  "http://www.w3.org/Graphics/SVG/1.1/DTD/svg11.dtd">
<svg t="1660560333684" class="icon" viewBox="0 0 1024 1024" version="1.1" xmlns="http://www.w3.org/2000/svg" p-id="7705"
     width="200" height="200">
  <defs>
    <style type="text/css">@font-face { font-family: "feedback-iconfont"; src:
      url("//at.alicdn.com/t/font_1031158_u69w8yhxdu.woff2?t=1630033759944") format("woff2"),
      url("//at.alicdn.com/t/font_1031158_u69w8yhxdu.woff?t=1630033759944") format("woff"),
      url("//at.alicdn.com/t/font_1031158_u69w8yhxdu.ttf?t=1630033759944") format("truetype"); }
    </style>
  </defs>
  <path
    d="M98.461538 546.953846c0-12.228923 9.176615-18.215385 20.401231-13.272615l86.390154 37.927384c11.224615 4.923077 20.401231 18.944 20.401231 31.172923v49.368616h144.738461l27.963077-60.435692 85.543385 39.778461-40.448 87.433846a47.241846 47.241846 0 0 1-42.870154 27.313231h-174.966154v49.368615c0 12.248615-9.156923 26.249846-20.401231 31.172923l-86.350769 37.96677C107.638154 869.651692 98.461538 863.704615 98.461538 851.456z m814.67077 3.328l-58.978462 126.070154-84.381538-39.227077 143.36-86.843077zM361.491692 161.673846L947.593846 434.136615c22.193231 10.358154 23.236923 29.184 2.284308 41.865847l-262.833231 159.232c-20.952615 12.681846-56.280615 14.611692-78.513231 4.292923l-386.500923-179.672616a44.563692 44.563692 0 0 1-21.582769-59.076923l101.769846-217.6a44.780308 44.780308 0 0 1 59.273846-21.504z"
    p-id="7706"></path>
</svg>
