<?xml version="1.0" standalone="no"?><!DOCTYPE svg PUBLIC "-//W3C//DTD SVG 1.1//EN"
  "http://www.w3.org/Graphics/SVG/1.1/DTD/svg11.dtd">
<svg t="1660560125111" class="icon" viewBox="0 0 1024 1024" version="1.1" xmlns="http://www.w3.org/2000/svg" p-id="2174"
     width="200" height="200">
  <defs>
    <style type="text/css">@font-face { font-family: "feedback-iconfont"; src:
      url("//at.alicdn.com/t/font_1031158_u69w8yhxdu.woff2?t=1630033759944") format("woff2"),
      url("//at.alicdn.com/t/font_1031158_u69w8yhxdu.woff?t=1630033759944") format("woff"),
      url("//at.alicdn.com/t/font_1031158_u69w8yhxdu.ttf?t=1630033759944") format("truetype"); }
    </style>
  </defs>
  <path
    d="M342.4 601.6c6.4-4.8 13.6-4.8 24-13.6 13.6-13.6 28-36 0-67.2-90.4-168.8-59.2-280-44.8-320-10.4-4.8-24-8.8-37.6-8.8H280c-86.4 0-110.4 102.4-110.4 156 0 54.4 10.4 109.6 36 153.6 4 7.2 8 13.6 12.8 19.2 7.2 9.6 14.4 15.2 16 29.6 3.2 28-12 40.8-29.6 52.8-16.8 11.2-33.6 21.6-51.2 32-31.2 20-71.2 46.4-84.8 91.2-1.6 4.8-2.4 9.6-3.2 14.4-3.2 22.4 0 48.8 0 67.2 20.8 17.6 82.4 36 82.4 36-0.8-0.8 8.8-44.8 8.8-48.8 2.4-13.6 4.8-25.6 10.4-38.4 7.2-15.2 16-29.6 25.6-42.4 13.6-17.6 28.8-32 44.8-46.4 20.8-17.6 43.2-32.8 65.6-46.4 5.6-3.2 12-7.2 18.4-10.4 7.2-3.2 14.4-5.6 20.8-9.6z m356.8 9.6c6.4 3.2 12 7.2 18.4 10.4 22.4 13.6 44.8 28 65.6 46.4 16 13.6 31.2 28.8 44.8 46.4 9.6 12.8 19.2 26.4 25.6 42.4 5.6 12 8 24.8 10.4 38.4 0.8 3.2 9.6 48 8.8 48.8 0 0 62.4-17.6 82.4-36 0-17.6 3.2-44.8 0-67.2-0.8-5.6-1.6-9.6-3.2-14.4-13.6-44.8-53.6-71.2-84.8-91.2-16.8-11.2-33.6-20.8-51.2-32s-32.8-24-29.6-52.8c1.6-13.6 8.8-19.2 16-29.6 4.8-5.6 8.8-12 12.8-19.2 25.6-44 36-99.2 36-153.6 0-53.6-24-156-110.4-156h-2.4c-13.6 0-28 4.8-37.6 8.8 13.6 40 44.8 151.2-44.8 320.8-28 31.2-13.6 53.6 0 67.2 10.4 8.8 17.6 8.8 24 13.6 6.4 3.2 12.8 5.6 19.2 8.8z"
    p-id="2175"></path>
  <path
    d="M772.8 722.4c-13.6-17.6-30.4-32-48-44-25.6-18.4-52.8-33.6-80-48.8-20.8-11.2-43.2-23.2-60.8-40.8-12.8-12.8-18.4-28.8-9.6-48 6.4-15.2 17.6-25.6 27.2-38.4 9.6-13.6 18.4-28 25.6-44 23.2-49.6 32.8-107.2 32.8-164 0-8.8-0.8-17.6-1.6-25.6-0.8-9.6-2.4-19.2-4-28-1.6-9.6-4-20-7.2-29.6-3.2-9.6-6.4-20-10.4-28.8s-8.8-18.4-14.4-27.2-11.2-16-18.4-23.2c-7.2-7.2-15.2-13.6-23.2-18.4-8.8-4.8-18.4-8.8-28-11.2-11.2-3.2-22.4-4-34.4-4-13.6 0-27.2-0.8-40.8 2.4-5.6 0.8-12 3.2-17.6 4.8-5.6 1.6-10.4 4-16 7.2s-9.6 5.6-13.6 8.8c-4.8 3.2-8.8 7.2-12.8 11.2-4 4-8 8-11.2 12.8s-6.4 8.8-9.6 13.6c-3.2 4.8-5.6 9.6-8 15.2-2.4 4.8-4.8 10.4-7.2 16-2.4 4.8-4 11.2-5.6 16-1.6 4.8-3.2 11.2-4.8 16.8-1.6 4.8-2.4 11.2-4 16.8-0.8 4.8-1.6 11.2-2.4 16s-1.6 10.4-1.6 15.2c-0.8 4.8-0.8 9.6-0.8 15.2v8.8c0 57.6 9.6 115.2 32.8 164 7.2 16 16 30.4 25.6 44 8.8 12.8 20 23.2 27.2 38.4 8.8 19.2 2.4 35.2-9.6 48-17.6 17.6-40 28.8-60.8 40.8-26.4 15.2-54.4 30.4-80 48.8-16.8 12.8-33.6 25.6-48 44-23.2 29.6-36.8 71.2-37.6 113.6-0.8 18.4 8.8 32.8 20 43.2 24.8 21.6 57.6 28 86.4 32.8l9.6 1.6c44.8 8.8 104 13.6 183.2 13.6s137.6-4.8 183.2-13.6l9.6-2.4c28.8-5.6 61.6-12 86.4-32.8 11.2-9.6 20-24 20-43.2-1.6-42.4-14.4-84-37.6-113.6z"
    p-id="2176"></path>
</svg>
